# xmcd CD database file generated by Grip 2.92
# 
# Track frame offsets:
#       150
#       2707
#       14113
#       25772
#       41029
#       51634
#       62997
#       77725
#       90040
#       108142
#       118362
#       128293
#       139134
#       156746
#       168752
#       179208
#       191848
# 
# Disc length: 2729 seconds
# 
# Revision: 3
# Processed by: cddbd v1.4b41PL1 Copyright (c) Steve Scherf et al.
# Submitted via: Grip 2.92
# 
DISCID=ed0aa711
DTITLE=Mike West - 16 Easy Songs for Drill and Banjo
DYEAR=1900
DGENRE=
TTITLE0=Introduction By Coco Robicheaux
TTITLE1=Yard Sale
TTITLE2=Travelin' Salesman
TTITLE3=Audrey's Wake
TTITLE4=Lottery
TTITLE5=Thief
TTITLE6=Melissa
TTITLE7=Joanne
TTITLE8=Snow In New Orleans
TTITLE9=After The Flood
TTITLE10=Charango
TTITLE11=Little Yella Dog
TTITLE12=Curtains
TTITLE13=Bartender Song
TTITLE14=In My House
TTITLE15=Save Your Seeds
TTITLE16=What Would You Do
EXTD=
EXTT0=
EXTT1=
EXTT2=
EXTT3=
EXTT4=
EXTT5=
EXTT6=
EXTT7=
EXTT8=
EXTT9=
EXTT10=
EXTT11=
EXTT12=
EXTT13=
EXTT14=
EXTT15=
EXTT16=
PLAYORDER=
